<?xml version="1.0" standalone="no"?>
<!DOCTYPE svg PUBLIC "-//W3C//DTD SVG 20010904//EN"
 "http://www.w3.org/TR/2001/REC-SVG-20010904/DTD/svg10.dtd">
<svg version="1.0" xmlns="http://www.w3.org/2000/svg"
 width="890.000000pt" height="500.000000pt" viewBox="0 0 890.000000 500.000000"
 preserveAspectRatio="xMidYMid meet">

<g transform="translate(0.000000,500.000000) scale(0.100000,-0.100000)"
fill="#000000" stroke="none">
<path d="M4362 4894 c-18 -10 -45 -33 -60 -52 -23 -31 -27 -44 -26 -106 0 -39
4 -87 8 -107 7 -31 6 -37 -12 -41 -30 -8 -46 -44 -26 -60 46 -38 53 -49 59
-102 4 -31 4 -82 -1 -113 -5 -32 -9 -92 -10 -133 -1 -41 -6 -106 -10 -145 l-9
-70 -64 113 c-35 63 -73 118 -85 123 -17 8 -86 98 -86 113 0 2 15 9 34 16 39
13 116 76 116 95 0 19 -21 29 -115 54 -44 12 -127 43 -184 68 -216 94 -403
117 -512 65 -25 -12 -50 -22 -56 -22 -6 0 -24 -11 -40 -24 -25 -21 -31 -22
-48 -10 -10 8 -36 14 -58 14 -31 0 -46 -7 -74 -35 -31 -31 -35 -40 -30 -73 5
-42 82 -181 104 -189 9 -3 29 2 45 11 29 18 30 18 73 -11 72 -47 157 -114 151
-120 -3 -3 -24 2 -48 12 -52 21 -147 23 -202 3 -30 -11 -51 -12 -89 -5 -44 9
-52 8 -63 -8 -19 -26 -18 -31 14 -60 60 -56 150 -74 247 -49 23 6 25 4 23 -23
-3 -47 8 -56 63 -49 67 9 198 -27 233 -63 25 -27 52 -94 88 -216 22 -75 28
-192 15 -285 -8 -53 -10 -57 -78 -107 -38 -29 -73 -53 -78 -53 -5 0 -11 8 -14
19 -2 10 -28 29 -60 44 -93 43 -113 123 -49 204 16 21 32 48 36 60 10 32 -41
133 -112 222 -159 199 -365 250 -582 144 -129 -63 -210 -167 -263 -338 -13
-44 -46 -131 -72 -194 -25 -62 -49 -134 -52 -160 -13 -101 -7 -343 13 -521 2
-25 9 -108 14 -185 5 -78 16 -176 25 -220 22 -104 122 -449 141 -487 31 -60
84 -208 84 -235 0 -52 20 -104 44 -112 13 -6 39 -41 66 -91 100 -183 293 -458
417 -594 130 -142 368 -344 564 -479 53 -37 102 -73 109 -82 17 -21 47 -19 60
5 5 10 13 52 16 93 8 86 -7 165 -41 217 -18 29 -22 50 -22 103 1 65 9 80 33
58 5 -5 68 -33 139 -62 72 -28 131 -53 133 -54 1 -1 14 -57 28 -125 32 -157
46 -197 102 -293 44 -77 76 -105 106 -94 38 15 196 406 196 485 0 25 5 30 43
42 63 18 221 94 296 142 78 49 146 102 220 170 29 27 56 46 59 43 6 -6 -144
-154 -210 -207 -32 -26 -33 -28 -33 -100 0 -50 -5 -82 -16 -98 -35 -56 -44
-96 -44 -195 1 -106 13 -145 44 -145 10 0 26 9 36 20 10 12 35 30 54 42 149
89 473 361 612 513 123 134 317 411 419 596 26 47 53 84 66 89 21 8 44 71 44
121 0 13 25 84 55 158 66 165 160 487 179 620 8 53 17 148 21 211 3 63 10 153
15 200 18 174 23 375 10 416 -7 21 -14 52 -15 69 -1 16 -24 86 -52 155 -28 69
-58 152 -67 185 -24 83 -78 176 -136 234 -94 94 -259 151 -390 136 -146 -16
-315 -157 -401 -335 -16 -33 -29 -67 -29 -74 0 -8 16 -36 36 -62 71 -93 53
-172 -50 -214 -39 -17 -56 -29 -56 -42 0 -27 -13 -22 -87 33 -74 55 -77 60
-88 184 -8 84 13 206 50 294 14 33 25 67 25 75 0 9 13 30 30 49 39 45 157 81
235 72 59 -8 70 0 67 48 -2 23 1 28 15 23 58 -16 106 -16 157 -2 72 21 118 60
114 95 -3 25 -5 26 -58 24 -30 -2 -86 4 -125 11 -72 15 -141 10 -186 -14 -83
-45 31 65 127 122 32 19 35 19 63 2 16 -9 36 -14 44 -11 22 8 107 169 107 202
0 17 -12 39 -34 61 -27 27 -42 34 -73 34 -22 0 -48 -6 -58 -14 -17 -12 -23
-11 -48 10 -16 13 -34 24 -40 24 -6 0 -31 10 -56 23 -40 19 -61 22 -156 21
-124 0 -221 -24 -359 -89 -41 -19 -117 -47 -168 -61 -109 -31 -128 -40 -128
-59 0 -19 77 -82 117 -96 19 -6 33 -14 31 -18 -14 -32 -67 -101 -84 -109 -21
-10 -40 -39 -109 -165 -26 -47 -34 -55 -43 -44 -9 11 -9 22 -1 46 7 21 9 57 4
99 -4 37 -8 108 -10 157 -1 50 -3 99 -4 110 -3 36 28 102 54 113 33 15 33 49
0 64 -25 11 -25 12 -19 102 6 81 4 96 -14 133 -34 65 -73 87 -162 91 -55 2
-84 -2 -108 -14z m187 -33 c50 -35 66 -68 66 -134 l0 -62 -152 -3 -151 -3 -7
31 c-18 83 32 171 108 188 52 12 105 5 136 -17z m-929 -262 c36 -5 144 -41
241 -80 98 -38 200 -75 229 -82 28 -7 51 -17 51 -23 1 -15 -81 -54 -114 -54
-36 0 -116 39 -182 90 -114 87 -191 108 -272 75 -55 -23 -85 -19 -137 21 -26
20 -46 38 -44 40 8 8 85 22 123 23 22 0 69 -4 105 -10z m923 4 c-40 -2 -107
-2 -150 0 -43 1 -10 3 72 3 83 0 118 -2 78 -3z m946 -10 c23 -9 23 -10 -20
-42 -58 -42 -83 -47 -138 -27 -25 9 -65 16 -87 16 -47 0 -130 -40 -197 -94
-56 -45 -139 -86 -175 -86 -32 0 -118 42 -115 55 1 5 25 15 53 22 29 7 132 45
230 83 98 38 202 74 232 79 60 11 181 7 217 -6z m-834 -43 c4 -7 -62 -10 -189
-10 -124 0 -196 4 -196 10 0 6 70 10 189 10 116 0 192 -4 196 -10z m-1292 -38
c11 -18 17 -35 14 -38 -10 -11 -47 17 -63 47 -15 30 -15 30 7 27 13 -2 31 -17
42 -36z m2227 23 c0 -18 -43 -65 -60 -65 -15 0 -12 11 10 48 21 33 50 43 50
17z m-2396 -1 c9 -4 16 -18 16 -33 0 -35 15 -53 73 -86 l47 -27 0 33 0 33 36
-35 c20 -19 59 -83 91 -147 31 -62 81 -142 111 -178 43 -52 53 -71 48 -90 -8
-29 -26 -30 -104 -8 -36 11 -74 15 -109 11 -29 -3 -53 -3 -53 -1 0 12 74 34
115 34 25 0 61 -7 80 -14 32 -14 35 -14 35 3 0 53 -146 202 -276 281 -55 33
-56 33 -86 15 -35 -20 -32 -22 -78 67 -17 32 -30 68 -30 81 0 24 21 49 50 60
8 3 16 6 17 6 1 1 8 -2 17 -5z m2579 -22 c25 -22 21 -52 -20 -131 -37 -72 -51
-83 -73 -56 -7 8 -18 15 -25 15 -22 0 -156 -94 -226 -158 -62 -58 -121 -144
-107 -157 4 -4 23 -2 43 5 47 15 134 9 165 -13 22 -15 21 -16 -31 -10 -36 3
-73 0 -108 -11 -78 -23 -99 -21 -107 9 -5 20 5 37 49 90 30 36 79 116 110 178
32 63 71 127 91 146 l36 35 0 -33 0 -33 48 27 c59 35 74 53 69 87 -2 19 2 29
12 31 22 6 53 -3 74 -21z m-1179 -11 c4 -5 -51 -9 -129 -9 -80 0 -133 3 -130
9 8 12 252 12 259 0z m-1309 -11 c11 -17 -5 -32 -21 -19 -8 6 -14 15 -14 20 0
12 27 11 35 -1z m425 0 c19 -6 48 -21 64 -35 l30 -24 -27 -6 c-18 -5 -35 -1
-56 14 -62 44 -69 17 -10 -37 26 -25 43 -51 49 -76 l8 -38 -48 4 c-36 4 -58
13 -85 36 -32 29 -55 40 -55 27 0 -3 13 -31 30 -62 20 -40 27 -66 24 -85 -5
-24 -9 -25 -37 -17 -49 14 -103 75 -122 137 -6 21 -4 23 14 17 50 -16 84 22
94 105 3 25 6 46 6 48 2 6 90 1 121 -8z m1605 -45 c9 -71 42 -110 86 -101 28
5 30 4 23 -17 -18 -61 -73 -122 -122 -136 -29 -9 -31 -7 -37 20 -5 22 1 42 24
83 17 29 31 56 31 60 0 14 -21 4 -55 -26 -27 -23 -49 -32 -85 -36 l-48 -4 8
38 c6 25 23 51 49 76 59 54 52 81 -10 37 -22 -15 -37 -19 -57 -14 l-27 7 30
24 c37 30 75 42 137 43 l47 1 6 -55z m335 45 c0 -12 -28 -25 -36 -17 -9 9 6
27 22 27 8 0 14 -5 14 -10z m-2114 -86 c-9 -13 -21 -24 -26 -24 -16 0 -40 31
-40 53 1 20 2 19 16 -6 19 -35 36 -31 49 13 8 29 10 31 13 11 2 -12 -4 -33
-12 -47z m968 1 c62 -18 86 -43 86 -90 0 -57 -8 -59 -106 -30 -49 15 -99 31
-112 36 -30 12 -44 53 -36 105 l6 42 53 -23 c29 -13 78 -31 109 -40z m883 -2
c6 -2 19 8 27 24 11 21 15 23 16 10 0 -29 -19 -57 -39 -57 -20 0 -41 39 -40
73 0 16 3 13 12 -12 7 -19 17 -36 24 -38z m-810 42 c9 -24 -3 -29 -39 -15 -52
21 -55 30 -10 30 29 0 45 -5 49 -15z m-1145 -20 c3 -13 1 -22 -3 -19 -9 5 -13
44 -5 44 2 0 6 -11 8 -25z m2037 -19 c-9 -8 -10 -7 -5 7 3 10 7 24 7 30 1 7 3
4 6 -7 3 -10 -1 -23 -8 -30z m-1605 -31 c13 -9 36 -34 52 -56 31 -45 50 -46
46 -3 l-3 29 26 -28 c18 -20 25 -39 25 -68 0 -21 -3 -39 -7 -39 -15 0 -73 40
-73 49 0 6 -25 37 -56 70 -54 59 -58 77 -10 46z m1170 -37 c-28 -29 -56 -62
-64 -74 -16 -21 -59 -54 -72 -54 -5 0 -8 18 -8 39 0 29 7 48 26 68 l25 28 -4
-28 c-6 -39 10 -44 36 -10 39 51 75 83 93 83 12 0 3 -15 -32 -52z m-1174 -53
c22 -36 40 -198 23 -208 -14 -9 -105 36 -129 64 -26 29 -74 101 -74 110 0 4
19 5 43 2 34 -4 49 -13 79 -46 20 -23 39 -39 43 -35 3 3 -5 29 -20 58 -19 38
-24 60 -20 81 8 35 21 28 55 -26z m1215 -52 c-15 -30 -24 -57 -20 -61 4 -4 23
12 43 34 29 33 46 43 80 48 23 3 42 3 42 -2 0 -10 -47 -80 -74 -111 -23 -26
-115 -73 -128 -65 -10 7 -10 96 1 151 5 23 21 59 37 80 l28 37 9 -29 c8 -23 5
-38 -18 -82z m-556 -4 c27 -6 55 -16 61 -24 13 -15 27 -155 16 -155 -15 0
-241 73 -249 80 -15 13 -26 84 -20 126 l5 42 69 -29 c37 -16 90 -34 118 -40z
m-440 -143 l6 -98 -42 6 c-65 9 -123 42 -122 69 0 31 16 106 18 85 1 -19 58
-88 72 -88 20 0 7 49 -21 85 -35 44 -37 49 -11 35 38 -20 61 -12 68 22 6 31 6
31 16 7 5 -13 12 -68 16 -123z m798 86 c12 -2 31 2 42 8 28 14 26 10 -9 -35
-28 -35 -41 -85 -22 -85 13 0 55 48 68 78 l12 27 1 -25 c1 -14 4 -42 7 -62 6
-35 5 -37 -35 -57 -22 -12 -62 -24 -87 -28 l-46 -6 6 74 c4 41 12 97 18 124
11 47 12 48 18 20 3 -21 12 -31 27 -33z m-1177 -32 c11 -21 20 -51 20 -66 0
-25 -2 -26 -32 -20 -31 6 -108 70 -108 89 0 16 54 -3 81 -29 34 -33 41 -30 23
11 -26 64 -15 76 16 15z m1516 -14 c-8 -20 -12 -36 -9 -36 3 0 21 14 40 30 57
50 95 34 40 -17 -89 -85 -138 -62 -85 40 25 49 36 36 14 -17z m-1804 -8 c32
-12 58 -26 58 -30 0 -3 -35 -7 -77 -7 -43 0 -107 -3 -143 -7 -68 -6 -112 5
-163 41 -21 16 -20 16 23 10 28 -3 64 0 95 9 65 19 136 14 207 -16z m786 -87
c52 -100 62 -127 61 -168 -1 -86 -9 -91 -55 -36 -73 87 -75 92 -79 213 -3 60
-1 110 3 110 4 0 35 -54 70 -119z m575 7 c-4 -97 -9 -118 -29 -148 -33 -50
-94 -117 -94 -105 -1 6 -5 30 -10 55 -10 44 -8 49 57 178 38 72 71 132 75 132
4 0 4 -51 1 -112z m914 96 c37 -11 70 -14 101 -9 45 6 46 6 25 -10 -66 -47
-111 -50 -377 -26 -18 2 3 13 70 36 82 29 108 30 181 9z m-1280 -68 c43 -19
97 -39 121 -45 58 -16 76 -46 70 -116 -3 -30 -7 -57 -10 -60 -8 -8 -242 55
-256 69 -18 17 -26 84 -18 140 4 25 9 46 11 46 2 0 39 -15 82 -34z m-550 -114
c-3 -46 -10 -89 -15 -94 -25 -25 -202 60 -202 98 0 29 21 54 45 54 24 0 36
-10 83 -70 30 -37 37 -18 13 35 -12 26 -21 60 -21 75 l0 28 51 -21 51 -22 -5
-83z m1283 99 c0 -16 -9 -50 -21 -76 -24 -53 -17 -72 13 -35 47 60 59 70 83
70 28 0 52 -37 42 -64 -15 -37 -177 -110 -199 -88 -5 5 -12 48 -15 94 l-5 83
43 21 c59 28 59 28 59 -5z m-1079 -108 c18 -5 29 -51 29 -125 0 -47 -18 -148
-26 -148 -20 0 -88 48 -133 93 l-53 55 7 53 c12 88 19 90 55 18 31 -62 66
-109 81 -109 12 0 -11 71 -47 142 l-34 68 52 -21 c29 -12 60 -24 69 -26z m889
32 c0 -3 -14 -34 -32 -68 -33 -66 -51 -127 -37 -127 12 0 53 58 84 120 31 61
37 57 50 -35 7 -46 7 -48 -41 -97 -48 -49 -114 -98 -133 -98 -23 0 -40 162
-25 237 5 23 15 33 57 50 53 22 77 27 77 18z m-1782 -49 c47 -22 81 -48 135
-106 74 -79 147 -190 147 -223 0 -11 -15 -40 -34 -66 -47 -64 -54 -108 -26
-166 17 -36 33 -51 72 -71 58 -29 59 -43 2 -19 -104 43 -154 154 -115 253 35
88 30 115 -34 178 -76 77 -159 114 -250 114 -127 0 -216 -66 -328 -241 -65
-102 -167 -214 -240 -262 -29 -20 -53 -34 -55 -32 -1 1 16 45 39 96 23 52 56
141 75 199 39 123 87 210 147 264 123 112 321 147 465 82z m2835 18 c176 -45
278 -155 342 -368 15 -49 41 -118 57 -155 17 -36 36 -83 43 -103 l14 -37 -32
19 c-93 56 -188 158 -272 290 -56 90 -135 173 -190 203 -33 18 -57 22 -130 22
-111 0 -157 -20 -245 -105 -69 -67 -74 -87 -39 -185 18 -51 20 -66 10 -101
-13 -49 -46 -100 -81 -126 -23 -17 -90 -41 -90 -33 0 2 22 16 50 31 37 20 55
38 71 71 27 55 20 94 -26 162 -19 28 -35 59 -35 68 0 33 74 146 145 221 123
131 245 168 408 126z m-1507 -126 l89 -23 3 -52 3 -53 -93 0 c-103 1 -174 12
-191 29 -15 15 -14 96 1 133 l11 27 44 -19 c24 -11 84 -30 133 -42z m-669 -22
c1 -1 -9 -33 -22 -71 -13 -39 -27 -83 -31 -100 -6 -26 -9 -18 -24 55 -10 47
-25 102 -34 124 -9 21 -16 40 -16 41 0 2 122 -45 127 -49z m1357 8 c-9 -21
-24 -77 -34 -124 l-17 -85 -12 45 c-6 25 -20 70 -31 100 -11 30 -16 56 -12 58
4 1 32 13 62 25 30 13 56 23 58 22 1 -1 -5 -19 -14 -41z m-941 -71 c47 -37 38
-44 -78 -58 l-50 -6 9 83 9 83 42 -40 c23 -22 54 -50 68 -62z m542 -52 c4 -11
-7 -12 -62 -6 -36 4 -75 10 -86 14 -18 7 -17 10 13 37 18 16 51 47 74 69 l41
40 7 -70 c5 -38 10 -76 13 -84z m-1771 75 c-66 -44 -123 -110 -157 -179 -26
-54 -36 -107 -19 -107 5 0 31 39 58 87 27 48 68 106 90 129 53 53 146 100 170
86 15 -8 10 -15 -35 -47 -54 -39 -101 -102 -165 -220 -50 -92 -79 -130 -129
-166 -33 -24 -43 -27 -55 -16 -23 19 -42 72 -42 118 0 102 160 307 265 338 64
19 70 11 19 -23z m2921 8 c104 -49 234 -230 235 -326 0 -42 -14 -85 -37 -110
-14 -15 -18 -16 -43 -3 -40 21 -102 94 -140 167 -63 121 -121 198 -171 231
-53 35 -57 42 -32 51 19 8 110 -34 153 -71 17 -14 58 -72 92 -129 34 -57 65
-104 70 -104 17 0 7 53 -21 108 -37 73 -90 134 -155 179 -50 34 -50 35 -18 29
19 -3 49 -13 67 -22z m-2065 -97 c13 -48 13 -48 -19 -77 l-31 -29 0 -111 c0
-81 4 -119 16 -141 17 -34 23 -32 39 12 5 17 25 40 43 51 l33 21 -7 -29 c-15
-66 -41 -111 -67 -116 -38 -7 -81 15 -106 56 -21 34 -22 40 -12 125 7 51 21
112 35 142 13 30 30 80 37 112 13 62 18 60 39 -16z m1240 -107 c11 -20 38
-169 40 -217 0 -7 -16 -30 -35 -52 -40 -44 -95 -59 -119 -32 -13 16 -49 112
-43 117 9 9 77 -49 77 -66 0 -31 18 -33 34 -2 11 22 13 54 9 148 -5 112 -7
120 -31 140 -24 20 -25 22 -12 75 7 30 15 58 18 63 3 5 15 -26 27 -70 11 -43
27 -90 35 -104z m-1854 149 c19 -21 19 -22 0 -33 -109 -65 -189 -155 -190
-216 -1 -22 4 -40 9 -41 6 -2 24 22 42 52 17 30 40 67 50 84 21 34 86 81 125
91 23 5 29 2 39 -19 9 -19 8 -32 -5 -58 -28 -59 -121 -153 -183 -186 -97 -51
-97 -51 -123 8 -26 61 -23 88 19 174 30 63 85 123 136 149 40 21 58 20 81 -5z
m688 -11 c22 -17 45 -35 50 -40 5 -4 -7 -15 -28 -23 -21 -9 -39 -15 -41 -13
-7 7 -33 108 -28 108 3 0 24 -14 47 -32z m1049 -20 c-9 -29 -18 -56 -22 -60
-4 -4 -22 2 -40 13 -18 11 -32 22 -30 24 14 14 95 74 100 74 4 1 0 -23 -8 -51z
m736 33 c78 -40 165 -172 165 -252 0 -20 -8 -54 -18 -77 -16 -35 -23 -41 -40
-36 -42 13 -116 55 -150 85 -52 45 -126 148 -126 174 0 89 140 23 199 -94 16
-31 38 -67 49 -81 18 -22 21 -23 27 -7 21 53 -50 159 -154 229 -25 17 -48 33
-50 35 -8 6 32 43 46 43 8 0 31 -9 52 -19z m-1309 -87 c6 -14 10 -47 10 -74 0
-49 13 -73 24 -44 3 9 6 33 6 54 0 21 4 49 9 62 9 23 9 23 122 16 170 -11 352
-54 407 -96 21 -16 23 -25 20 -90 l-3 -72 -69 42 c-111 66 -157 80 -286 85
-92 4 -123 2 -154 -11 -49 -21 -67 -20 -144 4 -123 39 -231 22 -394 -62 -54
-28 -102 -47 -106 -44 -4 4 -8 40 -10 81 l-4 74 40 20 c88 45 264 77 435 80
85 1 88 0 97 -25z m-231 -256 c1 -57 -14 -53 -38 8 -27 72 -27 92 2 96 18 2
23 -3 29 -32 4 -19 7 -52 7 -72z m181 91 c19 -12 38 -27 42 -33 4 -6 8 -48 8
-93 l0 -83 -100 0 -100 0 0 109 c0 78 4 111 13 114 32 13 104 6 137 -14z m281
-14 c4 -16 7 -67 8 -112 l1 -83 -105 0 -105 0 0 79 c0 60 4 84 18 100 29 35
73 52 127 49 47 -3 50 -5 56 -33z m113 -11 c-1 -16 -12 -51 -25 -79 l-24 -50
-3 55 c-2 30 -1 69 3 87 5 28 8 31 28 24 16 -7 22 -16 21 -37z m-644 -78 c17
-43 29 -81 26 -83 -7 -7 -70 46 -111 94 -27 32 -32 43 -22 52 20 16 61 30 69
22 3 -3 21 -41 38 -85z m743 11 c-50 -55 -102 -101 -108 -95 -6 5 12 58 44
131 l21 48 41 -21 41 -21 -39 -42z m-2202 -221 c-7 -123 -16 -187 -30 -228
-23 -68 -94 -179 -143 -226 l-35 -33 -6 83 c-4 46 -10 169 -13 273 l-7 190 39
38 c64 62 65 60 58 -145 -4 -136 -2 -179 6 -166 15 24 30 162 30 278 l0 94 53
54 52 53 3 -47 c2 -26 -1 -124 -7 -218z m590 139 c-26 -269 -63 -366 -163
-430 l-28 -17 -19 44 c-41 96 -63 213 -62 340 0 66 2 122 4 124 2 2 22 -14 45
-36 l42 -39 0 -136 c0 -75 4 -135 9 -135 14 0 21 44 30 186 7 105 12 130 26
139 9 5 40 26 69 47 28 20 53 34 55 33 2 -2 -2 -56 -8 -120z m2527 30 c2 -2 8
-65 13 -141 9 -145 14 -174 30 -174 5 0 9 58 9 135 l0 136 42 39 c23 22 43 40
46 40 2 0 2 -69 0 -152 -4 -139 -8 -162 -37 -250 -17 -54 -35 -100 -40 -102
-5 -3 -27 8 -49 24 -43 31 -86 95 -103 152 -13 44 -36 203 -45 306 l-7 84 69
-47 c38 -26 70 -49 72 -50z m562 -115 c1 -120 14 -243 30 -268 8 -12 10 33 5
166 -6 206 -5 209 60 142 l38 -39 -6 -183 c-4 -101 -10 -223 -13 -271 l-7 -88
-44 43 c-51 50 -114 152 -137 222 -17 48 -35 270 -36 416 l0 74 55 -54 55 -54
0 -106z m-3400 20 c-5 -96 -12 -195 -16 -220 -6 -46 -73 -202 -92 -214 -16
-10 -78 67 -100 127 -27 71 -36 178 -27 310 l7 105 34 -37 c33 -38 34 -39 44
-177 10 -133 23 -184 34 -133 14 69 14 103 1 194 l-14 100 37 30 c20 16 50 44
67 62 16 17 30 31 31 30 2 -1 -1 -81 -6 -177z m3114 85 l29 -19 -9 -90 c-10
-113 -10 -173 -1 -210 15 -54 27 -12 37 128 9 138 10 138 44 176 l34 38 7
-114 c9 -135 0 -229 -27 -303 -21 -56 -84 -135 -99 -125 -5 3 -28 42 -51 87
-44 88 -44 90 -62 421 l-6 109 37 -40 c21 -22 51 -48 67 -58z m-2723 44 c11
-23 35 -55 52 -71 31 -28 32 -29 10 -34 -30 -8 -35 -39 -31 -212 3 -162 -2
-165 -48 -24 -23 70 -29 105 -29 177 0 86 12 205 21 205 2 0 13 -19 25 -41z
m2276 -16 c13 -83 9 -185 -11 -243 -27 -81 -88 -210 -96 -205 -3 2 -6 80 -5
172 1 92 -2 173 -6 178 -5 7 8 26 30 48 21 21 44 51 51 67 17 42 28 37 37 -17z
m-1552 -40 c19 -21 35 -40 35 -43 0 -4 -16 -4 -35 -2 -29 3 -35 8 -35 27 0 13
-3 30 -6 39 -10 26 3 19 41 -21z m827 -6 c-4 -31 -8 -35 -38 -39 -19 -2 -34
-2 -34 0 0 9 65 79 71 76 3 -2 3 -18 1 -37z m-1122 -35 c0 -4 -27 -7 -60 -7
-33 0 -60 2 -60 5 0 3 17 17 38 32 l37 27 23 -25 c12 -14 22 -28 22 -32z m220
23 c0 -12 -7 -25 -15 -29 -16 -6 -18 5 -9 41 8 28 24 20 24 -12z m964 13 c9
-37 7 -48 -9 -42 -9 4 -15 19 -15 35 0 34 15 38 24 7z m316 -38 c0 -3 -27 -5
-60 -5 -33 0 -60 3 -60 6 0 4 9 18 21 33 l21 26 39 -27 c21 -16 39 -30 39 -33z
m-875 -65 c-30 -30 -32 -64 -4 -99 l20 -26 -421 0 -421 0 -8 -22 c-5 -13 -8
-161 -7 -331 0 -169 -1 -307 -4 -307 -3 0 -14 7 -24 15 -27 21 -59 19 -90 -6
l-26 -20 0 357 c0 341 1 357 17 334 25 -37 45 -49 76 -50 34 0 87 48 87 80 0
89 -108 124 -157 51 l-23 -34 0 42 0 41 505 0 504 0 -24 -25z m1085 -380 c0
-223 -3 -405 -7 -405 -3 0 -14 7 -24 16 -23 21 -75 21 -99 -1 -20 -18 -20 -17
-20 297 l0 315 38 7 c49 7 76 37 76 83 0 60 -71 101 -120 69 -37 -25 -50 -61
-37 -97 l11 -29 -399 0 -400 0 22 29 c25 35 19 83 -14 106 -19 13 31 15 476
15 l497 0 0 -405z m-992 363 c7 -7 12 -21 12 -33 0 -12 -5 -26 -12 -33 -7 -7
-21 -12 -33 -12 -12 0 -26 5 -33 12 -7 7 -12 21 -12 33 0 12 5 26 12 33 7 7
21 12 33 12 12 0 26 -5 33 -12z m-954 -17 c25 -27 17 -64 -16 -75 -34 -12 -58
6 -58 45 0 45 44 63 74 30z m1864 -3 c7 -7 12 -21 12 -33 0 -12 -5 -26 -12
-33 -7 -7 -21 -12 -33 -12 -12 0 -26 5 -33 12 -7 7 -12 21 -12 33 0 12 5 26
12 33 7 7 21 12 33 12 12 0 26 -5 33 -12z m-108 -478 l0 -350 -850 0 -850 0 0
350 0 350 850 0 850 0 0 -350z m330 123 c-28 -257 -58 -455 -78 -528 -16 -56
-17 -58 -23 -30 -4 17 -7 146 -8 288 l-1 258 26 52 c59 117 99 182 102 165 2
-9 -6 -101 -18 -205z m-2295 -429 l27 -162 -22 -83 c-11 -46 -31 -105 -42
-132 l-21 -48 -39 38 c-54 52 -82 111 -112 234 -32 131 -50 240 -76 448 -24
194 -24 204 -7 171 10 -19 20 -25 44 -24 31 2 32 1 38 -55 27 -241 68 -548 78
-578 15 -46 37 -55 37 -16 0 16 -13 110 -29 209 -33 200 -51 349 -51 422 0 40
6 57 31 88 17 22 40 57 52 79 l21 40 21 -235 c12 -129 34 -308 50 -396z m2366
584 c12 -24 35 -58 50 -76 22 -25 29 -43 29 -76 0 -77 -20 -246 -50 -425 -32
-186 -36 -241 -20 -241 15 0 27 38 44 137 13 77 66 503 66 531 0 5 14 9 32 8
25 -1 35 5 45 24 17 33 16 23 -7 -165 -28 -229 -38 -284 -72 -430 -35 -149
-60 -204 -117 -259 l-40 -39 -20 46 c-11 25 -29 85 -41 134 l-22 89 26 149
c25 151 49 356 62 538 4 53 8 97 10 97 2 0 13 -19 25 -42z m-2352 -74 l30 -55
3 -234 c2 -128 0 -228 -3 -222 -4 7 -18 109 -33 227 -15 118 -30 243 -34 278
-5 34 -5 62 -1 62 4 0 21 -25 38 -56z m-360 -69 c19 -156 59 -405 93 -575 29
-149 30 -160 20 -275 -11 -118 -29 -196 -49 -202 -5 -2 -31 15 -56 37 -80 70
-119 168 -162 400 -32 175 -85 551 -85 607 0 20 2 19 31 -10 40 -40 43 -50 74
-252 35 -233 60 -360 95 -494 29 -110 42 -141 61 -141 21 0 5 97 -56 338 -67
263 -95 398 -95 459 0 22 11 50 31 79 17 24 40 67 51 95 12 27 24 46 28 42 4
-4 12 -53 19 -108z m3063 -32 c30 -44 30 -48 24 -120 -4 -41 -41 -210 -82
-374 -70 -284 -86 -379 -64 -379 32 0 92 237 145 575 44 284 38 262 81 310
l36 40 -7 -70 c-17 -179 -48 -388 -84 -578 -34 -179 -44 -216 -78 -278 -37
-70 -116 -153 -137 -146 -19 6 -43 110 -51 217 -6 91 -3 123 19 235 37 192 73
413 91 560 9 72 19 137 22 145 3 10 14 -4 30 -39 13 -29 38 -74 55 -98z
m-3303 -268 c22 -159 52 -351 67 -425 22 -117 25 -152 20 -260 -5 -130 -23
-210 -58 -268 -11 -18 -22 -32 -24 -30 -1 2 -8 33 -13 70 -6 36 -23 92 -37
124 -93 209 -210 630 -220 792 l-6 97 40 39 c48 46 40 62 72 -149 12 -77 46
-252 76 -390 74 -343 75 -344 85 -351 13 -8 3 74 -28 216 -13 63 -38 178 -54
255 -39 181 -68 365 -71 440 -2 55 2 68 47 150 l50 90 7 -55 c4 -30 25 -185
47 -345z m3553 296 l48 -97 -10 -80 c-17 -133 -51 -322 -87 -479 -59 -260 -83
-409 -64 -390 14 14 134 567 160 740 32 211 25 195 73 149 l40 -39 -7 -99
c-10 -164 -130 -594 -218 -787 -21 -45 -45 -145 -47 -194 -1 -27 -43 46 -62
109 -32 100 -32 336 0 478 21 97 50 289 93 616 13 94 26 172 29 171 3 0 26
-44 52 -98z m-2778 -417 c32 -31 14 -84 -29 -84 -27 0 -45 18 -45 46 0 25 24
54 45 54 7 0 21 -7 29 -16z m1924 4 c7 -7 12 -21 12 -33 0 -29 -19 -45 -52
-45 -35 0 -52 28 -38 64 7 20 17 26 38 26 15 0 33 -5 40 -12z m-25 -114 c14 3
32 13 41 21 8 8 17 15 20 15 3 0 6 -175 6 -390 l0 -390 -26 -6 c-20 -5 -32 0
-59 26 -65 63 -65 63 -65 429 l0 332 29 -22 c20 -15 37 -20 54 -15z m-1973 11
c16 -20 64 -19 95 1 l25 16 0 -321 c0 -352 -1 -357 -60 -424 -33 -38 -57 -46
-78 -25 -14 14 -18 768 -3 768 5 0 14 -7 21 -15z m2080 -154 c0 -17 -4 -33
-10 -36 -6 -4 -10 8 -10 29 0 20 5 36 10 36 6 0 10 -13 10 -29z m-2166 -432
c-10 -11 -20 -19 -24 -19 -8 0 -110 214 -110 230 0 6 10 4 24 -5 13 -8 30 -13
39 -10 19 8 54 89 70 163 11 53 12 42 15 -142 2 -175 0 -201 -14 -217z m2247
251 c24 -56 42 -67 75 -45 14 9 24 11 24 5 0 -11 -96 -219 -105 -228 -3 -3
-14 3 -25 13 -19 17 -20 30 -19 219 1 194 1 199 15 143 7 -31 23 -80 35 -107z
m-2382 -139 c70 -148 73 -156 66 -207 -8 -68 6 -114 46 -143 28 -21 30 -25 16
-39 -23 -23 -37 -8 -119 132 -39 67 -84 142 -99 168 -24 40 -27 52 -18 75 5
15 13 62 16 105 3 44 9 75 13 71 4 -4 40 -77 79 -162z m2300 -53 c1 -86 -3
-138 -9 -138 -6 0 -10 67 -9 183 1 125 4 168 10 137 4 -25 8 -107 8 -182z
m289 42 c8 -21 4 -36 -25 -90 -52 -94 -172 -288 -184 -296 -10 -6 -39 13 -39
26 0 3 12 13 27 21 38 21 55 69 47 138 -7 61 -15 40 119 321 l31 65 7 -80 c4
-44 12 -91 17 -105z m-2771 -263 c110 -202 160 -274 402 -576 63 -79 172 -200
241 -270 70 -69 134 -137 144 -151 l17 -25 20 24 c19 23 20 23 34 5 8 -10 15
-26 15 -34 0 -8 9 -38 19 -66 18 -46 18 -53 5 -73 -8 -11 -13 -25 -10 -30 3
-5 3 -22 0 -39 l-6 -30 -72 51 c-78 56 -263 195 -341 258 -84 67 -273 259
-350 354 -92 115 -246 343 -313 464 -29 52 -52 97 -52 100 0 3 13 32 28 64
l28 59 19 -44 c30 -69 115 -218 164 -288 155 -223 795 -904 809 -861 7 20 -71
111 -191 223 -106 100 -312 320 -418 448 -128 154 -216 282 -305 440 -57 102
-58 107 -62 193 -6 132 1 135 59 21 29 -54 81 -152 116 -217z m3021 188 c-4
-75 -8 -86 -63 -185 -88 -159 -177 -287 -309 -445 -117 -140 -310 -347 -411
-440 -115 -107 -195 -198 -195 -222 0 -24 54 21 195 162 125 126 404 430 517
565 95 113 223 317 265 421 l17 43 28 -63 28 -64 -52 -96 c-52 -97 -210 -334
-296 -446 -65 -84 -251 -274 -352 -359 -88 -75 -233 -185 -357 -274 l-72 -51
-6 29 c-4 16 -4 34 0 40 3 5 -1 20 -9 31 -13 20 -13 27 5 73 10 28 19 58 19
66 0 8 7 24 15 34 14 18 15 18 35 -5 l21 -24 16 25 c9 14 62 70 117 125 193
192 455 514 577 712 40 63 163 289 219 400 30 60 36 67 43 49 5 -12 7 -57 5
-101z m-3047 -4 c25 -15 37 -17 52 -9 22 12 19 16 79 -87 22 -38 67 -112 99
-163 55 -86 59 -96 59 -152 0 -51 4 -64 28 -90 15 -17 45 -37 67 -45 38 -13
40 -15 37 -51 -7 -80 42 -153 114 -168 33 -7 65 -37 104 -96 26 -40 121 -140
132 -140 19 0 -20 67 -73 125 -32 36 -59 69 -59 72 0 4 33 -24 73 -63 39 -39
89 -83 110 -98 36 -26 37 -29 37 -89 0 -104 -7 -104 -111 -2 -231 229 -501
565 -633 790 -68 116 -158 285 -152 285 3 0 20 -9 37 -19z m2883 -88 c-75
-141 -134 -239 -203 -338 -108 -155 -330 -422 -474 -570 -163 -167 -167 -168
-167 -58 0 60 1 63 38 89 20 15 70 59 111 98 77 73 79 66 5 -15 -45 -49 -79
-107 -70 -117 10 -9 94 77 136 138 47 69 59 79 123 105 65 25 90 66 91 142 1
55 1 55 41 69 22 7 52 27 68 44 23 26 27 39 27 90 0 56 4 67 53 143 29 45 77
124 106 175 29 50 55 92 57 92 3 0 13 -4 23 -9 12 -7 26 -4 47 9 16 10 32 19
37 19 4 1 -18 -47 -49 -106z m-2534 -70 c-6 -29 -15 -53 -20 -53 -4 0 -11 18
-15 40 -5 32 -2 47 17 77 22 37 23 37 27 13 1 -14 -2 -49 -9 -77z m2232 25 c3
-43 -2 -78 -10 -78 -13 0 -32 71 -32 115 l0 38 21 -26 c11 -15 21 -37 21 -49z
m-62 -114 c-13 -15 -40 -18 -77 -8 -33 9 -28 21 10 28 19 3 42 13 53 20 17 13
19 13 22 -5 2 -11 -2 -27 -8 -35z m-2073 22 c49 0 43 -14 -13 -26 -41 -9 -64
1 -64 27 0 11 5 13 18 7 9 -5 36 -8 59 -8z m98 -162 c-26 -34 -58 -49 -91 -42
-17 3 -40 54 -46 104 -3 24 1 28 44 41 28 8 56 25 70 41 l23 29 13 -69 c13
-69 13 -70 -13 -104z m1845 111 c16 -8 39 -15 50 -15 19 0 21 -4 15 -32 -28
-126 -76 -149 -134 -64 -22 33 -26 47 -20 71 4 17 10 47 14 68 l6 38 20 -26
c12 -14 34 -32 49 -40z m-1996 -147 c9 -42 16 -80 16 -83 0 -12 -29 -4 -54 16
-21 17 -26 29 -26 65 0 52 28 116 40 93 5 -8 15 -49 24 -91z m2161 72 c8 -16
15 -49 15 -74 0 -36 -5 -48 -26 -65 -31 -25 -56 -28 -48 -6 3 8 1 28 -4 45 -9
24 -7 39 11 80 12 27 25 50 29 50 4 0 14 -13 23 -30z m-275 -96 c0 -8 18 -32
41 -55 l41 -41 -26 -36 c-15 -20 -38 -50 -51 -65 -27 -31 -42 -28 -83 16 l-23
24 41 77 c22 42 40 84 40 92 0 8 5 12 10 9 6 -3 10 -13 10 -21z m-1640 -64
c22 -44 40 -84 40 -89 0 -5 -13 -23 -29 -40 -50 -53 -82 -41 -144 56 l-27 43
37 17 c22 11 44 32 56 56 10 20 21 37 23 37 2 0 22 -36 44 -80z m-104 41 c-10
-11 -31 -25 -48 -32 -25 -10 -31 -10 -39 2 -14 23 -11 29 19 30 15 0 36 4 47
9 33 14 39 11 21 -9z m1922 -8 c-2 -21 -9 -29 -27 -31 -23 -4 -71 15 -71 28 0
5 52 21 93 29 5 0 7 -11 5 -26z m-24 -109 c18 -47 -8 -113 -51 -133 -33 -15
-33 -15 -33 22 0 21 12 52 31 80 33 50 43 56 53 31z m-1897 -101 c21 -39 15
-48 -21 -31 -33 15 -56 56 -56 100 l1 33 29 -35 c16 -19 37 -49 47 -67z m198
27 c3 -5 1 -10 -4 -10 -6 0 -11 5 -11 10 0 6 2 10 4 10 3 0 8 -4 11 -10z m-80
-40 c-11 -12 -30 -20 -49 -19 l-31 1 32 11 c17 7 35 15 39 20 17 17 26 5 9
-13z m1504 -12 c17 -45 -39 -87 -75 -58 -17 15 -18 52 -2 68 21 21 68 15 77
-10z m159 10 c-5 -16 -43 -22 -66 -12 -14 6 -11 9 13 14 46 12 57 11 53 -2z
m-1558 -18 c24 -24 24 -29 4 -58 -18 -26 -41 -28 -66 -5 -22 20 -23 41 -1 65
21 23 38 23 63 -2z m85 -50 c30 -33 165 -115 236 -143 71 -29 219 -67 257 -67
20 0 22 -3 16 -22 -10 -29 -10 -57 0 -86 7 -22 6 -22 -36 -16 -52 8 -212 57
-288 89 -67 28 -200 106 -253 148 l-38 30 30 18 c17 10 33 30 37 44 7 30 15
31 39 5z m1246 -42 c38 -15 -210 -174 -358 -230 -102 -38 -240 -75 -249 -66
-2 3 3 19 12 37 15 29 14 34 0 57 -19 28 -18 29 63 39 65 7 228 58 291 90 25
13 77 45 115 73 l70 49 21 -22 c11 -12 27 -25 35 -27z m-628 -210 c8 -12 7
-24 -1 -42 -15 -33 -55 -35 -76 -4 -20 28 -20 33 0 53 20 20 63 16 77 -7z
m-134 -124 l69 -15 4 -129 c2 -71 7 -132 11 -136 16 -17 22 15 25 136 3 91 7
130 16 133 7 3 43 8 80 12 l67 7 -7 -28 c-25 -107 -60 -205 -107 -305 -30 -64
-59 -119 -65 -123 -14 -8 -51 42 -90 119 -38 77 -57 138 -81 253 -21 106 -27
100 78 76z"/>
<path d="M3630 4406 c0 -8 14 -26 31 -41 24 -19 35 -23 43 -15 8 8 2 19 -22
41 -35 32 -52 37 -52 15z"/>
<path d="M3550 4303 c0 -22 6 -36 20 -43 17 -9 20 -8 20 9 0 10 -9 29 -20 42
l-19 24 -1 -32z"/>
<path d="M5216 4391 c-32 -34 -28 -58 7 -39 26 13 46 38 47 56 0 21 -25 13
-54 -17z"/>
<path d="M5320 4299 c-6 -11 -10 -27 -8 -36 3 -15 5 -15 21 1 18 19 23 56 7
56 -5 0 -14 -9 -20 -21z"/>
</g>
</svg>
